<?xml version="1.0" encoding="utf-8"?>
<!-- Generator: Adobe Illustrator 25.1.0, SVG Export Plug-In . SVG Version: 6.00 Build 0)  -->
<svg version="1.1" id="Lag_1" xmlns="http://www.w3.org/2000/svg" xmlns:xlink="http://www.w3.org/1999/xlink" x="0px" y="0px"
	 viewBox="0 0 595.28 248.9" style="enable-background:new 0 0 595.28 248.9;" xml:space="preserve">
<style type="text/css">
	.st0{fill:#FFFFFF;}
</style>
<path class="st0" d="M161.53,57.84C148.36,28.96,126.69,10.8,93.89,10.9C44.38,11.06,6.21,47.11,6.41,97.43
	c0.17,3.32,0.06,6.69,0.56,9.97c6.67,44.05,31.17,76.33,67.33,100.52c9.81,6.56,20.51,6.95,31.76,1.48
	c12.44-6.05,22.15-15.21,31.75-24.6C171.08,152.21,180.88,100.25,161.53,57.84z M57.96,26.9c1.76-0.69,3.54-1.37,5.33-2.06
	c1.86-0.71,3.71-1.41,5.55-2.1c6.91-2.49,17.4-3.16,26.31-3.16c31.77,0,60.72,31.64,60.53,49.05c0,8.42-13.74,13.91-23.5,13.91
	c-23.16,0-17.23-35.79-40.96-35.79c-12.06,0-17.8,7.46-17.8,16.84c0,40.96,88.2,13.76,88.2,67.35c0,25.26-42.01,75.96-70.34,75.96
	c-35.02,0-72.47-59.58-72.47-76.62c0-8.04,2.98-8.02,12.55-8.02c20.67,0.19,28.84,42.7,57.55,42.7c11.1,0,26.24-9.69,26.24-19.65
	c0-4.53-1.03-7.93-2.85-10.55c-10.8-15.57-33.08-7.12-58-24.53c-3.93-2.74-10.75-7.62-16.1-16.48c-1.81-3.01-13.96-23.92-3.76-45.1
	C41.16,34.69,53.71,28.7,57.96,26.9z"/>
<g>
	<path class="st0" d="M246.83,150.47c-0.31,8.58-11.24,24.03-31.68,24.03c-22.63,0-38.54-15.76-38.54-39.48
		c0-23.09,17.94-38.54,38.39-38.54s29.8,11.55,29.8,21.38c0,4.68-2.5,7.8-6.09,9.67L207.67,145c4.06,6.4,10.14,10.14,17.79,10.14
		c6.71,0,12.8-3.12,15.6-6.87C243.24,146.1,246.99,147.03,246.83,150.47z M201.74,120.51c0,6.09,0.78,11.7,2.34,16.38l14.51-8.74
		c2.5-1.72,4.06-4.68,4.06-7.96c0-4.99-2.5-16.07-10.45-16.07C205.79,104.12,201.74,111.46,201.74,120.51z"/>
	<path class="st0" d="M339.52,134.08c0,24.65-17.48,40.41-36.83,40.41c-8.27,0-14.2-2.5-18.88-6.87v1.4c0,2.96-1.25,4.06-4.06,4.06
		l-23.56-0.16c-2.18,0-3.59-1.09-3.59-2.96v-0.62c0-4.37,6.24-6.24,6.24-13.58v-71c0-7.33-7.65-8.58-7.65-12.95V71.2
		c0-1.87,0.78-2.81,4.21-4.37l24.03-11.08c3.9-1.87,7.33-0.94,7.33,3.59v41.82c4.06-3.12,9.52-4.68,15.92-4.68
		C320.33,96.48,339.52,108.8,339.52,134.08z M312.06,147.19c0-16.85-4.53-43.07-15.92-43.07c-5.62,0-9.36,4.99-9.36,13.73v30.27
		c0,9.52,6.55,18.73,13.42,18.73C308.15,166.85,312.06,159.98,312.06,147.19z"/>
	<path class="st0" d="M346.38,156.08c0-7.02,4.84-9.99,11.08-9.99c15.6,0,10.3,21.38,23.25,21.38c4.68,0,8.43-2.34,8.43-8.58
		c0-20.44-41.35-8.43-41.35-38.7c0-13.89,13.42-23.72,32.92-23.72c19.82,0,32.77,8.58,32.77,18.72c0,5.46-4.68,9.52-10.45,9.52
		c-15.14,0-10.14-21.07-20.91-21.07c-4.84,0-7.33,4.37-7.33,8.89c0,21.38,39.95,10.14,39.95,38.85c0,12.95-12.33,22.94-34.02,22.94
		C361.05,174.34,346.38,167.01,346.38,156.08z"/>
	<path class="st0" d="M491.96,150.47c-0.31,8.58-11.23,24.03-31.68,24.03c-22.63,0-38.54-15.76-38.54-39.48
		c0-23.09,17.94-38.54,38.39-38.54s29.8,11.55,29.8,21.38c0,4.68-2.5,7.8-6.08,9.67L452.8,145c4.06,6.4,10.14,10.14,17.79,10.14
		c6.71,0,12.8-3.12,15.6-6.87C488.38,146.1,492.12,147.03,491.96,150.47z M446.87,120.51c0,6.09,0.78,11.7,2.34,16.38l14.51-8.74
		c2.5-1.72,4.06-4.68,4.06-7.96c0-4.99-2.5-16.07-10.45-16.07C450.93,104.12,446.87,111.46,446.87,120.51z"/>
	<path class="st0" d="M588.86,169.5v0.62c0,1.87-1.56,2.96-3.74,2.96h-31.21c-2.34,0-3.74-1.09-3.74-2.96v-0.62
		c0-4.53,6.08-6.4,5.62-13.58L554.22,128c-0.78-15.45-3.74-21.22-10.77-21.22c-6.87,0-10.14,6.09-10.14,15.14v34.02
		c0,7.18,6.87,9.05,6.87,13.58v0.62c0,1.87-1.41,2.96-3.75,2.96h-33.7c-2.34,0-3.75-1.09-3.75-2.96v-0.62
		c0-4.53,6.87-6.4,6.87-13.58v-30.74c0-7.49-8.27-8.43-8.27-12.95v-0.47c0-1.87,1.56-2.81,3.75-3.9l21.85-10.77
		c3.9-2.03,5.93,0.62,5.93,3.75v7.33c4.21-7.49,12.02-11.7,22.31-11.7c13.58,0,27.93,7.65,29.8,32.46l2.03,27
		C583.71,163.11,588.86,164.98,588.86,169.5z"/>
</g>
<g>
	<path class="st0" d="M89.21,243.61c-4.62-0.54-9.82,0.66-12.49-4.48c-2.56-4.91,0-9.37,2.38-13.58
		c6.01-10.61,17.81-10.71,24.08-0.02c1.85,3.16,2.77,6.97,3.58,10.6c0.69,3.11-1.26,5.09-4.28,5.61
		C98.08,242.49,93.63,243,89.21,243.61z"/>
</g>
</svg>
